<?xml version="1.0" encoding="utf-8"?>
<!-- Generator: Adobe Illustrator 21.0.0, SVG Export Plug-In . SVG Version: 6.00 Build 0)  -->
<svg version="1.1" id="Layer_1" xmlns="http://www.w3.org/2000/svg" xmlns:xlink="http://www.w3.org/1999/xlink" x="0px" y="0px"
	 viewBox="0 0 153.8 153.9" enable-background="new 0 0 153.8 153.9" xml:space="preserve">
<path fill="#FFFFFF" d="M153.8,144L101.9,92c17.4-22.3,15.9-54.8-4.6-75.3C86.5,5.9,72.2,0,57,0S27.4,5.9,16.7,16.7
	c-22.2,22.2-22.2,58.4,0,80.6C27.4,108.1,41.7,114,57,114c12.9,0,25.1-4.2,35-12.1l51.9,51.9L153.8,144z M26.6,87.4
	c-16.8-16.8-16.8-44,0-60.8C34.7,18.5,45.5,14,57,14s22.3,4.5,30.4,12.6c16.8,16.8,16.8,44,0,60.8C79.3,95.5,68.5,100,57,100
	S34.7,95.5,26.6,87.4z"/>
</svg>
