<?xml version="1.0" encoding="utf-8"?>
<!-- Generator: Adobe Illustrator 21.0.0, SVG Export Plug-In . SVG Version: 6.00 Build 0)  -->
<svg version="1.1" id="icon-info-blue" xmlns="http://www.w3.org/2000/svg" xmlns:xlink="http://www.w3.org/1999/xlink" x="0px" y="0px"
	 width="20px" height="20px" viewBox="0 0 20 20" enable-background="new 0 0 20 20" xml:space="preserve">
<path fill="#146AFF" d="M10,2c4.4,0,8,3.6,8,8s-3.6,8-8,8s-8-3.6-8-8S5.6,2,10,2 M10,0C4.5,0,0,4.5,0,10c0,5.5,4.5,10,10,10
	c5.5,0,10-4.5,10-10C20,4.5,15.5,0,10,0L10,0z"/>
<rect x="9" y="8.5" fill="#146AFF" width="2" height="6"/>
<rect x="9" y="5.5" fill="#146AFF" width="2" height="2"/>
</svg>
