<?xml version="1.0" encoding="utf-8"?>
<!-- Generator: Adobe Illustrator 21.0.2, SVG Export Plug-In . SVG Version: 6.00 Build 0)  -->
<svg version="1.1" id="Isolation_Mode" xmlns="http://www.w3.org/2000/svg" xmlns:xlink="http://www.w3.org/1999/xlink" x="0px"
	 y="0px" viewBox="0 0 27 19" enable-background="new 0 0 27 19" xml:space="preserve">
<g id="Lozenge">
	<g>
		<path fill="#FFFFFF" d="M26.7,4.1c0,0-0.3-1.9-1.1-2.7c-1-1.1-2.2-1.1-2.7-1.1C19.2,0,13.5,0,13.5,0h0c0,0-5.7,0-9.4,0.3
			C3.5,0.3,2.4,0.3,1.3,1.4C0.5,2.2,0.3,4.1,0.3,4.1S0,6.3,0,8.5v2c0,2.2,0.3,4.4,0.3,4.4s0.3,1.9,1.1,2.7c1,1.1,2.4,1,3,1.2
			c2.2,0.2,9.2,0.3,9.2,0.3s5.7,0,9.5-0.3c0.5-0.1,1.7-0.1,2.7-1.1c0.8-0.8,1.1-2.7,1.1-2.7s0.3-2.2,0.3-4.4v-2
			C27,6.3,26.7,4.1,26.7,4.1z M10.7,13l0-7.6L18,9.2L10.7,13z"/>
	</g>
</g>
</svg>
