<?xml version="1.0" encoding="utf-8"?>
<!-- Generator: Adobe Illustrator 21.0.2, SVG Export Plug-In . SVG Version: 6.00 Build 0)  -->
<svg version="1.1" id="Layer_1" xmlns="http://www.w3.org/2000/svg" xmlns:xlink="http://www.w3.org/1999/xlink" x="0px" y="0px"
	 viewBox="0 0 15 18" enable-background="new 0 0 15 18" xml:space="preserve">
<g>
	<path fill="#FFFFFF" d="M6.9,13c-0.2-0.1-0.3-0.7-0.6-0.5c-0.4,1.9-1,4-1.8,5.5H3.2h0.1c-0.2-0.7-0.1-2.2,0-3
		c0.3-1.8,1.4-4.3,1.4-6.2c0-0.8-0.4-1.6-0.3-2.5C4.7,4.7,7,3.2,7.8,5.1c1,2.2-2,4.8-0.3,6.3c0.3,0.3,1.2,0.5,1.8,0.4
		c3.3-0.7,3.8-7.7,1-9.3c-3.9-2.4-8.3,1.2-8,5C2.5,8.9,4,9.7,2.7,11c-1.8-0.8-2.5-2.1-2.5-4.2c0-4.4,4.2-7.3,8.8-6.7
		c2.9,0.3,5.5,2.7,5.8,5.4c0.2,2.4-0.5,5.5-2.3,7C11.2,13.5,8.4,14.2,6.9,13z"/>
</g>
</svg>
