<svg
 xmlns="http://www.w3.org/2000/svg"
 xmlns:xlink="http://www.w3.org/1999/xlink"
 width="28px" height="18px">
<path fill-rule="evenodd"  fill="rgb(0, 0, 0)"
 d="M28.013,15.611 L28.000,15.624 L28.000,16.001 L28.000,18.001 L26.000,18.001 L2.000,18.001 L0.000,18.001 L0.000,16.001 L0.000,2.000 L0.000,0.001 L2.000,0.001 L26.000,0.001 L28.000,0.001 L28.000,2.000 L28.000,15.599 L28.013,15.611 ZM25.584,16.001 L19.472,9.943 L14.808,14.607 L14.000,13.799 L13.193,14.607 L9.026,10.441 L3.416,16.001 L25.584,16.001 ZM2.000,14.608 L7.622,9.037 L2.000,3.415 L2.000,14.608 ZM3.414,2.000 L14.000,12.586 L24.586,2.000 L3.414,2.000 ZM26.000,3.415 L20.876,8.539 L26.000,13.617 L26.000,3.415 Z"/>
</svg>
