<?xml version="1.0" encoding="utf-8"?>
<!-- Generator: Adobe Illustrator 21.1.0, SVG Export Plug-In . SVG Version: 6.00 Build 0)  -->
<svg version="1.1" id="autoplay-pause-white" xmlns="http://www.w3.org/2000/svg" xmlns:xlink="http://www.w3.org/1999/xlink"
   x="0px" y="0px" viewBox="0 0 13 14" enable-background="new 0 0 13 14" xml:space="preserve">
<g>
  <path fill="#FFFFFF" d="M4.1,12.4c0,0.9-0.6,1.6-1.4,1.6H1.4C0.6,14,0,13.3,0,12.4V1.6C0,0.7,0.6,0,1.4,0h1.4c0.7,0,1.3,0.7,1.3,1.6V12.4z"/>
  <path fill="#FFFFFF" d="M12.2,12.4c0,0.9-0.6,1.6-1.4,1.6H9.4C8.7,14,8,13.3,8,12.4V1.6C8,0.7,8.7,0,9.4,0h1.4c0.8,0,1.4,0.7,1.4,1.6V12.4z"/>
</g>
</svg>
