<?xml version="1.0" encoding="utf-8"?>
<!-- Generator: Adobe Illustrator 21.0.0, SVG Export Plug-In . SVG Version: 6.00 Build 0)  -->
<svg version="1.1" id="juilliard-logo-blue" xmlns="http://www.w3.org/2000/svg" xmlns:xlink="http://www.w3.org/1999/xlink" x="0px" y="0px"
	 viewBox="0 0 72 17" enable-background="new 0 0 72 17" xml:space="preserve">
  <g>
  	<path fill="#0071BB" d="M1.6,12.5c0.2,1.8,1.4,3.1,3.2,3.1c2.1,0,2.9-2.1,2.9-4.2V0h1.5v11.2c0,1.2-0.1,2.8-1.2,4.1
  		C7.1,16.5,5.7,17,4.3,17c-2.7,0-4-2-4.3-4.5H1.6z"/>
  	<path fill="#0071BB" d="M20,5.1h1.4v9c0,0.9,0.1,1.8,0.1,2.6H20L20,14.9l0,0c-0.8,1.4-2.1,2.1-3.6,2.1c-3.8,0-4.1-3.3-4.1-4.7V5.1
  		h1.4v7.5c0,2,1.2,3.2,3,3.2c2.3,0,3.3-1.9,3.3-4V5.1z"/>
  	<path fill="#0071BB" d="M26.1,1.7h-1.4V0h1.4V1.7z M26.1,5.1v11.6h-1.4V5.1H26.1z"/>
  	<path fill="#0071BB" d="M30.8,16.7h-1.4V0h1.4V16.7z"/>
  	<path fill="#0071BB" d="M35.6,16.7h-1.4V0h1.4V16.7z"/>
  	<path fill="#0071BB" d="M40.3,1.7h-1.4V0h1.4V1.7z M40.3,5.1v11.6h-1.4V5.1H40.3z"/>
  	<path fill="#0071BB" d="M50.4,8.5C50.3,6.6,49.3,6,47.7,6c-1.5,0-2.7,0.4-2.8,2h-1.5c0.3-2.4,2.1-3.3,4.3-3.3
  		c2.6,0,4.2,1.2,4.1,3.8V14c0,0.9,0.1,1.8,0.1,2.6h-1.4l0-1.7h0l-0.1,0.2c-0.5,1-2.1,1.9-3.6,1.9c-2.1,0-3.9-1.3-3.9-3.6
  		c0-1.6,0.9-2.8,2.3-3.3c1.5-0.7,3.6-0.4,5.2-0.5V8.5z M46.9,15.7c3,0,3.6-2.5,3.5-4.9c-2,0.1-6.1-0.3-6.1,2.6
  		C44.3,15,45.5,15.7,46.9,15.7z"/>
  	<path fill="#0071BB" d="M56.5,16.7h-1.4v-9c0-0.9-0.1-1.8-0.1-2.6h1.4l0.1,1.7h0c0.4-1.2,1.5-2,2.6-2.1c0.5,0,0.9,0,1.4,0v1.3
  		c-0.3,0-0.6-0.1-0.9-0.1c-2.1,0-3.1,1.5-3.2,3.7V16.7z"/>
  	<path fill="#0071BB" d="M70.3,14.9L70.3,14.9c-1,1.3-2.4,2.1-4,2.1c-3.4,0-4.8-3.3-4.8-6.2c0-3,1.3-6.1,4.8-6.1
  		c1.5,0,3.2,0.7,4,2.1l0,0V0h1.4v14c0,0.9,0.1,1.8,0.1,2.6h-1.4L70.3,14.9z M66.5,6C63.9,6,63,8.4,63,10.7c0,2.1,0.6,5.1,3.3,5.1
  		c3,0,3.9-2.5,3.9-5.1C70.3,8.2,69.2,6,66.5,6z"/>
  </g>
</svg>
