<?xml version="1.0" encoding="utf-8"?>
<!-- Generator: Adobe Illustrator 21.0.0, SVG Export Plug-In . SVG Version: 6.00 Build 0)  -->
<svg version="1.1" id="Layer_1" xmlns="http://www.w3.org/2000/svg" xmlns:xlink="http://www.w3.org/1999/xlink" x="0px" y="0px"
	 width="170.3px" height="138.7px" viewBox="0 0 170.3 138.7" style="enable-background:new 0 0 170.3 138.7;" xml:space="preserve">
<style type="text/css">
	.st0{fill:#787878;}
</style>
<path class="st0" d="M152.9,34.8c0,1.2,0,2.6,0,4.1c0,46.7-35.1,99.8-99.2,99.8c-19.7,0-38-5.8-53.7-16c2.6,0.3,5.5,0.3,8.4,0.3
	c16.3,0,31.3-5.2,43.2-14.8c-15.4-0.3-28.1-10.4-32.5-24.4c2.3,0.6,4.1,0.9,6.4,0.9c3.5,0,6.4-0.6,9.3-1.2
	c-16-3.5-28.1-17.4-28.1-34.2c0,0,0,0,0-0.3c4.6,2.3,9.9,4.1,16.2,4.1C13,47,7.3,36.3,7.3,24.1c0-6.7,1.7-12.5,4.6-17.7
	c17.4,21.5,42.9,35.4,71.9,36.6c-0.6-2.3-0.9-5.2-0.9-7.5C83,16,98.6,0,117.8,0c10.5,0,19.2,4.4,25.5,11c7.8-1.2,15.7-4.7,22.3-8.1
	c-2.9,7.8-8.1,14.5-15.4,19.1c7.3-0.9,13.9-2.9,20-5.5C165.6,23.2,159.5,29.6,152.9,34.8z"/>
</svg>
