<?xml version="1.0" encoding="utf-8"?>
<!-- Generator: Adobe Illustrator 21.0.0, SVG Export Plug-In . SVG Version: 6.00 Build 0)  -->
<svg version="1.1" id="Layer_1" xmlns="http://www.w3.org/2000/svg" xmlns:xlink="http://www.w3.org/1999/xlink" x="0px" y="0px"
	 width="980px" height="980px" viewBox="0 0 980 980" style="enable-background:new 0 0 980 980;" xml:space="preserve">
<g>
	<path d="M0,0L0,0L0,0z"/>
	<path d="M876.8,154.7h-46.4v103.2h-165V154.7H366.2v103.2h-165V154.7h-46.4c-56.7,0-103.2,46.4-103.2,103.2v618.9
		C51.6,933.6,98,980,154.7,980h722.1c56.7,0,103.2-46.4,103.2-103.2V257.9C980,201.2,933.6,154.7,876.8,154.7z M876.8,876.8H154.7
		V464.2h722.1V876.8z M319.8,51.6h-72.2V227h72.2V51.6z M784,51.6h-72.2V227H784V51.6L784,51.6z"/>
</g>
</svg>
