<?xml version="1.0" encoding="utf-8"?>
<!-- Generator: Adobe Illustrator 21.0.2, SVG Export Plug-In . SVG Version: 6.00 Build 0)  -->
<svg version="1.1" id="Layer_1" xmlns="http://www.w3.org/2000/svg" xmlns:xlink="http://www.w3.org/1999/xlink" x="0px" y="0px"
	 viewBox="0 0 19 19" enable-background="new 0 0 19 19" xml:space="preserve">
<path fill="#FFFFFF" d="M16.6,0C17.9,0,19,1.1,19,2.4v14.1c0,1.4-1.1,2.5-2.4,2.5H2.5C1.1,19,0,17.9,0,16.5V2.4C0,1.1,1.1,0,2.5,0
	H16.6z M16.9,8h-1.7c0.2,0.5,0.3,1,0.3,1.6c0,3.2-2.6,5.7-5.9,5.7c-3.3,0-5.9-2.5-5.9-5.7C3.6,9,3.7,8.5,3.9,8H2.1v8
	c0,0.4,0.4,0.8,0.8,0.8h13.2c0.4,0,0.8-0.3,0.8-0.8V8z M5.7,9.5c0,2,1.7,3.7,3.8,3.7c2.1,0,3.8-1.7,3.8-3.7c0-2.1-1.7-3.7-3.8-3.7
	C7.4,5.8,5.7,7.4,5.7,9.5z M13.8,2.1c-0.4,0-0.8,0.4-0.8,0.9V5c0,0.4,0.4,0.8,0.8,0.8H16c0.5,0,0.9-0.4,0.9-0.8V2.9
	c0-0.4-0.4-0.9-0.9-0.9H13.8z"/>
</svg>
