<?xml version="1.0" encoding="utf-8"?>
<!-- Generator: Adobe Illustrator 21.0.2, SVG Export Plug-In . SVG Version: 6.00 Build 0)  -->
<svg version="1.1" id="Layer_1" xmlns="http://www.w3.org/2000/svg" xmlns:xlink="http://www.w3.org/1999/xlink" x="0px" y="0px"
	 viewBox="0 0 81 65" enable-background="new 0 0 81 65" xml:space="preserve">
<g>
	<polygon fill="#FFFFFF" points="5.4,58.5 5.4,6.5 14.5,8.4 14.5,3.1 0.2,0 0.2,65 14.5,61.9 14.5,56.6 	"/>
	<polygon fill="#FFFFFF" points="19.7,0 19.7,3.1 19.7,8.4 19.7,56.6 19.7,61.9 19.7,65 34,61.9 34,58.8 34,56.6 24.9,58.5 
		24.9,55.4 24.9,9.6 24.9,6.5 34,8.4 34,6.2 34,3.1 	"/>
	<path fill="#FFFFFF" d="M39.2,0v3.1v3.1v2.2v3.1v41.9v3.1v2.2v3.1V65l41.6-9.1V9.1L39.2,0z M75.6,51.7l-9.1,2l-22.1,4.8v-0.9v-2.2
		v-3.1V12.7V9.6V7.4V6.5l22.1,4.8l9.1,2V51.7z"/>
</g>
</svg>
