<?xml version="1.0" encoding="utf-8"?>
<!-- Generator: Adobe Illustrator 21.0.0, SVG Export Plug-In . SVG Version: 6.00 Build 0)  -->
<svg version="1.1" id="Capa_1" xmlns="http://www.w3.org/2000/svg" xmlns:xlink="http://www.w3.org/1999/xlink" x="0px" y="0px"
	 width="31.2px" height="28.3px" viewBox="0 0 31.2 28.3" style="enable-background:new 0 0 31.2 28.3;" xml:space="preserve">
<style type="text/css">
	.st0{fill:#FFFFFF;}
</style>
<g>
	<g id="c75_volume">
		<path class="st0" d="M4.4,9.3H0V19h4.4l8.2,6.1c0,0,1.5,1.3,1.5,0c0-1.3,0-20.9,0-22.1c0-1-1.3,0-1.3,0L4.4,9.3z"/>
		<path class="st0" d="M18.8,7.4c-0.4-0.4-1.1-0.4-1.6,0c-0.4,0.4-0.4,1.1,0,1.6c1.4,1.4,2.1,3.3,2.1,5.2c0,1.9-0.7,3.7-2.1,5.2
			c-0.4,0.4-0.4,1.1,0,1.6c0.2,0.2,0.5,0.3,0.8,0.3c0.3,0,0.6-0.1,0.8-0.3c1.9-1.9,2.8-4.3,2.8-6.7C21.6,11.7,20.7,9.3,18.8,7.4z"/>
		<path class="st0" d="M21.8,3.9c-0.4-0.4-1.1-0.4-1.6,0c-0.4,0.4-0.4,1.1,0,1.6c2.4,2.4,3.6,5.5,3.6,8.7c0,3.2-1.2,6.3-3.6,8.7
			c-0.4,0.4-0.4,1.1,0,1.6c0.2,0.2,0.5,0.3,0.8,0.3c0.3,0,0.6-0.1,0.8-0.3c2.8-2.8,4.2-6.6,4.2-10.3C26.1,10.4,24.6,6.7,21.8,3.9z"
			/>
		<path class="st0" d="M25.5,0.3c-0.4-0.4-1.1-0.4-1.6,0c-0.4,0.4-0.4,1.1,0,1.6C27.3,5.3,29,9.7,29,14.1c0,4.4-1.7,8.9-5.1,12.3
			c-0.4,0.4-0.4,1.1,0,1.6c0.2,0.2,0.5,0.3,0.8,0.3c0.3,0,0.6-0.1,0.8-0.3c3.8-3.8,5.7-8.8,5.7-13.8C31.2,9.1,29.3,4.1,25.5,0.3z"/>
	</g>
</g>
</svg>
